# xmcd
#
# Track frame offsets:
#	150
#	16450
#	34005
#	47485
#	61727
#	71510
#	88480
#	103105
#	120640
#	132775
#
# Disc length: 1985 seconds
#
# Revision: 1
# Processed by: cddbd v1.5.1PL0 Copyright (c) Steve Scherf et al.
# Submitted via: audiograbber 1.83.01
#
DISCID=8307bf0a
DTITLE=Various Artist - Country Duets Of The 80s And 90s
DYEAR=2000
DGENRE=Country
TTITLE0=Merle Haggard And Janie Fricke - A Place To Fall Apart
TTITLE1=Eddie Rabbitt And Juice Newton - Both To Each Other (Friends and Lovers)
TTITLE2=Patsy Cline And Jim Reeves - Have You Ever Been Lonely (Have You Ever B
TTITLE2=een Blue)
TTITLE3=Conway Twitty And Loretta Lynn - I Still Believe In Waltzes
TTITLE4=Dolly Parton And Porter Wagoner - Making Plans
TTITLE5=Tanya Tucker And Delbert McClinton - Tell Me About It 
TTITLE6=Lee Greenwood And Barbara Mandrell - To Me 
TTITLE7=Earl Thomas Conley And Anita Pointer - Too Many Times 
TTITLE8=George Jones And Tammy Wynette - Two Story House 
TTITLE9=Earl Thomas Conley And Emmylou Harris - We Believe In Happy Endings 
EXTD=
EXTT0=
EXTT1=
EXTT2=
EXTT3=
EXTT4=
EXTT5=
EXTT6=
EXTT7=
EXTT8=
EXTT9=
PLAYORDER=
